<svg width="249" height="25" viewBox="0 0 249 25" fill="none" xmlns="http://www.w3.org/2000/svg">
<path d="M31.36 1.76L24.768 24H20.64L15.968 7.168L11.008 24L6.912 24.032L0.608 1.76H4.48L9.088 19.872L14.08 1.76H18.176L22.816 19.776L27.456 1.76H31.36ZM50.5288 14.752C50.5288 15.4133 50.4861 16.0107 50.4008 16.544H36.9288C37.0354 17.952 37.5581 19.0827 38.4968 19.936C39.4354 20.7893 40.5874 21.216 41.9528 21.216C43.9154 21.216 45.3021 20.3947 46.1128 18.752H50.0487C49.5154 20.3733 48.5448 21.7067 47.1368 22.752C45.7501 23.776 44.0221 24.288 41.9528 24.288C40.2674 24.288 38.7528 23.9147 37.4088 23.168C36.0861 22.4 35.0408 21.3333 34.2728 19.968C33.5261 18.5813 33.1528 16.9813 33.1528 15.168C33.1528 13.3547 33.5154 11.7653 34.2408 10.4C34.9874 9.01333 36.0221 7.94667 37.3448 7.2C38.6888 6.45333 40.2248 6.08 41.9528 6.08C43.6168 6.08 45.0994 6.44267 46.4008 7.168C47.7021 7.89333 48.7154 8.91733 49.4408 10.24C50.1661 11.5413 50.5288 13.0453 50.5288 14.752ZM46.7208 13.6C46.6994 12.256 46.2194 11.1787 45.2808 10.368C44.3421 9.55733 43.1794 9.152 41.7928 9.152C40.5341 9.152 39.4568 9.55733 38.5608 10.368C37.6648 11.1573 37.1314 12.2347 36.9608 13.6H46.7208ZM57.7668 0.32V24H54.1188V0.32H57.7668ZM61.3403 15.168C61.3403 13.3547 61.7029 11.7653 62.4283 10.4C63.1749 9.01333 64.1989 7.94667 65.5003 7.2C66.8016 6.45333 68.2949 6.08 69.9803 6.08C72.1136 6.08 73.8736 6.592 75.2603 7.616C76.6683 8.61867 77.6176 10.0587 78.1083 11.936H74.1723C73.8523 11.0613 73.3403 10.3787 72.6363 9.888C71.9323 9.39733 71.0469 9.152 69.9803 9.152C68.4869 9.152 67.2923 9.68533 66.3963 10.752C65.5216 11.7973 65.0843 13.2693 65.0843 15.168C65.0843 17.0667 65.5216 18.5493 66.3963 19.616C67.2923 20.6827 68.4869 21.216 69.9803 21.216C72.0923 21.216 73.4896 20.288 74.1723 18.432H78.1083C77.5963 20.224 76.6363 21.6533 75.2283 22.72C73.8203 23.7653 72.0709 24.288 69.9803 24.288C68.2949 24.288 66.8016 23.9147 65.5003 23.168C64.1989 22.4 63.1749 21.3333 62.4283 19.968C61.7029 18.5813 61.3403 16.9813 61.3403 15.168ZM89.3918 24.288C87.7278 24.288 86.2238 23.9147 84.8798 23.168C83.5358 22.4 82.4798 21.3333 81.7118 19.968C80.9438 18.5813 80.5598 16.9813 80.5598 15.168C80.5598 13.376 80.9544 11.7867 81.7438 10.4C82.5331 9.01333 83.6104 7.94667 84.9758 7.2C86.3411 6.45333 87.8664 6.08 89.5518 6.08C91.2371 6.08 92.7624 6.45333 94.1278 7.2C95.4931 7.94667 96.5704 9.01333 97.3598 10.4C98.1491 11.7867 98.5438 13.376 98.5438 15.168C98.5438 16.96 98.1384 18.5493 97.3278 19.936C96.5171 21.3227 95.4078 22.4 93.9998 23.168C92.6131 23.9147 91.0771 24.288 89.3918 24.288ZM89.3918 21.12C90.3304 21.12 91.2051 20.896 92.0158 20.448C92.8478 20 93.5198 19.328 94.0318 18.432C94.5438 17.536 94.7998 16.448 94.7998 15.168C94.7998 13.888 94.5544 12.8107 94.0638 11.936C93.5731 11.04 92.9224 10.368 92.1118 9.92C91.3011 9.472 90.4264 9.248 89.4878 9.248C88.5491 9.248 87.6744 9.472 86.8638 9.92C86.0744 10.368 85.4451 11.04 84.9758 11.936C84.5064 12.8107 84.2718 13.888 84.2718 15.168C84.2718 17.0667 84.7518 18.5387 85.7118 19.584C86.6931 20.608 87.9198 21.12 89.3918 21.12ZM123.494 6.08C124.881 6.08 126.118 6.368 127.206 6.944C128.315 7.52 129.179 8.37333 129.798 9.504C130.438 10.6347 130.758 12 130.758 13.6V24H127.142V14.144C127.142 12.5653 126.747 11.36 125.958 10.528C125.169 9.67467 124.091 9.248 122.726 9.248C121.361 9.248 120.273 9.67467 119.462 10.528C118.673 11.36 118.278 12.5653 118.278 14.144V24H114.662V14.144C114.662 12.5653 114.267 11.36 113.478 10.528C112.689 9.67467 111.611 9.248 110.246 9.248C108.881 9.248 107.793 9.67467 106.982 10.528C106.193 11.36 105.798 12.5653 105.798 14.144V24H102.15V6.368H105.798V8.384C106.395 7.65867 107.153 7.09333 108.07 6.688C108.987 6.28267 109.969 6.08 111.014 6.08C112.422 6.08 113.681 6.37867 114.79 6.976C115.899 7.57333 116.753 8.43733 117.35 9.568C117.883 8.50133 118.715 7.65867 119.846 7.04C120.977 6.4 122.193 6.08 123.494 6.08ZM151.56 14.752C151.56 15.4133 151.517 16.0107 151.432 16.544H137.96C138.067 17.952 138.589 19.0827 139.528 19.936C140.467 20.7893 141.619 21.216 142.984 21.216C144.947 21.216 146.333 20.3947 147.144 18.752H151.08C150.547 20.3733 149.576 21.7067 148.168 22.752C146.781 23.776 145.053 24.288 142.984 24.288C141.299 24.288 139.784 23.9147 138.44 23.168C137.117 22.4 136.072 21.3333 135.304 19.968C134.557 18.5813 134.184 16.9813 134.184 15.168C134.184 13.3547 134.547 11.7653 135.272 10.4C136.019 9.01333 137.053 7.94667 138.376 7.2C139.72 6.45333 141.256 6.08 142.984 6.08C144.648 6.08 146.131 6.44267 147.432 7.168C148.733 7.89333 149.747 8.91733 150.472 10.24C151.197 11.5413 151.56 13.0453 151.56 14.752ZM147.752 13.6C147.731 12.256 147.251 11.1787 146.312 10.368C145.373 9.55733 144.211 9.152 142.824 9.152C141.565 9.152 140.488 9.55733 139.592 10.368C138.696 11.1573 138.163 12.2347 137.992 13.6H147.752ZM167.111 8.992C167.729 8.13867 168.572 7.44533 169.639 6.912C170.727 6.35733 171.932 6.08 173.255 6.08C174.812 6.08 176.22 6.45333 177.479 7.2C178.737 7.94667 179.729 9.01333 180.455 10.4C181.18 11.7653 181.543 13.3333 181.543 15.104C181.543 16.8747 181.18 18.464 180.455 19.872C179.729 21.2587 178.727 22.3467 177.447 23.136C176.188 23.904 174.791 24.288 173.255 24.288C171.889 24.288 170.673 24.0213 169.607 23.488C168.561 22.9547 167.729 22.272 167.111 21.44V24H163.463V0.32H167.111V8.992ZM177.831 15.104C177.831 13.888 177.575 12.8427 177.062 11.968C176.572 11.072 175.911 10.4 175.079 9.952C174.268 9.48267 173.393 9.248 172.455 9.248C171.537 9.248 170.663 9.48267 169.831 9.952C169.02 10.4213 168.359 11.104 167.847 12C167.356 12.896 167.111 13.952 167.111 15.168C167.111 16.384 167.356 17.4507 167.847 18.368C168.359 19.264 169.02 19.9467 169.831 20.416C170.663 20.8853 171.537 21.12 172.455 21.12C173.393 21.12 174.268 20.8853 175.079 20.416C175.911 19.9253 176.572 19.2213 177.062 18.304C177.575 17.3867 177.831 16.32 177.831 15.104ZM183.934 15.104C183.934 13.3333 184.297 11.7653 185.022 10.4C185.769 9.03467 186.771 7.97867 188.03 7.232C189.31 6.464 190.718 6.08 192.254 6.08C193.641 6.08 194.846 6.35733 195.87 6.912C196.915 7.44533 197.747 8.11733 198.366 8.928V6.368H202.046V24H198.366V21.376C197.747 22.208 196.905 22.9013 195.838 23.456C194.771 24.0107 193.555 24.288 192.19 24.288C190.675 24.288 189.289 23.904 188.03 23.136C186.771 22.3467 185.769 21.2587 185.022 19.872C184.297 18.464 183.934 16.8747 183.934 15.104ZM198.366 15.168C198.366 13.952 198.11 12.896 197.598 12C197.107 11.104 196.457 10.4213 195.646 9.952C194.835 9.48267 193.961 9.248 193.022 9.248C192.083 9.248 191.209 9.48267 190.398 9.952C189.587 10.4 188.926 11.072 188.414 11.968C187.923 12.8427 187.678 13.888 187.678 15.104C187.678 16.32 187.923 17.3867 188.414 18.304C188.926 19.2213 189.587 19.9253 190.398 20.416C191.23 20.8853 192.105 21.12 193.022 21.12C193.961 21.12 194.835 20.8853 195.646 20.416C196.457 19.9467 197.107 19.264 197.598 18.368C198.11 17.4507 198.366 16.384 198.366 15.168ZM205.622 15.168C205.622 13.3547 205.984 11.7653 206.71 10.4C207.456 9.01333 208.48 7.94667 209.782 7.2C211.083 6.45333 212.576 6.08 214.262 6.08C216.395 6.08 218.155 6.592 219.542 7.616C220.95 8.61867 221.899 10.0587 222.39 11.936H218.454C218.134 11.0613 217.622 10.3787 216.918 9.888C216.214 9.39733 215.328 9.152 214.262 9.152C212.768 9.152 211.574 9.68533 210.678 10.752C209.803 11.7973 209.366 13.2693 209.366 15.168C209.366 17.0667 209.803 18.5493 210.678 19.616C211.574 20.6827 212.768 21.216 214.262 21.216C216.374 21.216 217.771 20.288 218.454 18.432H222.39C221.878 20.224 220.918 21.6533 219.51 22.72C218.102 23.7653 216.352 24.288 214.262 24.288C212.576 24.288 211.083 23.9147 209.782 23.168C208.48 22.4 207.456 21.3333 206.71 19.968C205.984 18.5813 205.622 16.9813 205.622 15.168ZM233.001 15.2L241.129 24H236.201L229.673 16.416V24H226.025V0.32H229.673V14.08L236.073 6.368H241.129L233.001 15.2ZM248.32 1.76L247.904 17.28H244.864L244.448 1.76H248.32ZM246.496 24.224C245.834 24.224 245.28 24 244.832 23.552C244.384 23.104 244.16 22.5493 244.16 21.888C244.16 21.2267 244.384 20.672 244.832 20.224C245.28 19.776 245.834 19.552 246.496 19.552C247.136 19.552 247.68 19.776 248.128 20.224C248.576 20.672 248.8 21.2267 248.8 21.888C248.8 22.5493 248.576 23.104 248.128 23.552C247.68 24 247.136 24.224 246.496 24.224Z" fill="#333333"/>
</svg>
